<?xml version="1.0" encoding="UTF-8"?>
<svg id="_레이어_1" data-name="레이어 1" xmlns="http://www.w3.org/2000/svg" viewBox="0 0 308.62 100">
  <defs>
    <style>
      .cls-1, .cls-2 {
        fill: #4d4d4d;
      }

      .cls-3 {
        font-family: HelveticaNeue-Bold, 'Helvetica Neue';
        font-size: 55.23px;
        font-weight: 700;
        letter-spacing: 0em;
      }

      .cls-3, .cls-4 {
        fill: #841b2a;
      }

      .cls-5 {
        fill: #fff;
      }

      .cls-6 {
        letter-spacing: 0em;
      }

      .cls-7 {
        letter-spacing: -.01em;
      }

      .cls-2 {
        font-family: AvenirNextCondensed-DemiBold, 'Avenir Next Condensed';
        font-size: 12.93px;
        font-weight: 300;
      }
    </style>
  </defs>
  <rect class="cls-5" width="308.62" height="100"/>
  <g>
    <path class="cls-4" d="M48.98,77.33c3.63,1.01,7.17.47,10.6-1.08v3.43c-5.89,2.22-13.28,1.66-17.73-3.07-3.35-3.56-4.01-8.41-2.04-12.86,1.06-2.39,2.68-4.44,4.69-6.1,2.61-2.15,5.49-3.19,8.61-4.39l6.46-2.53v3.3s-4.53,1.73-4.53,1.73c-4.61,1.65-9.42,3.59-11.88,8.06-.81,1.48-1.26,3.04-1.29,4.74-.04,2.68,1.16,5.17,3.25,6.83,1.15.91,2.44,1.53,3.86,1.93Z"/>
    <path class="cls-4" d="M59.55,68.97l.04,2.44c-.62.35-1.17.75-1.72,1.22-.88.74-1.86,1.25-2.98,1.53-2.14.52-4.69.29-6.5-1.01-1.59-1.14-2.35-3.09-1.88-5,.65-2.63,3.36-4.75,5.93-5.25l1.67-.32c.91-.18,1.72-.49,2.5-.98.92-.59,1.85-1.09,2.94-1.43l.02,2.46-1.57,1.01c-1.03.76-2.2,1.18-3.48,1.34-.92.12-1.79.28-2.63.65-1.34.58-2.65,1.71-2.98,3.14-.25,1.07.25,2.07,1.2,2.6.74.42,1.55.57,2.41.59,1.51.04,2.93-.39,4.09-1.36.89-.66,1.77-1.24,2.94-1.63Z"/>
    <path class="cls-4" d="M41.25,58.93c-.57-3.05-2.68-5.38-5.52-6.31-1.19-.39-2.39-.48-3.64-.44-.65-1.43-1.69-2.57-2.84-3.57-1.51-1.32-3.08-2.5-4.74-3.61-.15-.1-.28-.04-.38.08-.84.98-1.49,2.08-1.92,3.35.9-.06,1.68-.11,2.52.02,2.96.45,5.18,2.85,5.45,5.89,2-.73,4.1-.62,5.91.37,1.66.91,2.83,2.45,3.22,4.3.23,1.36.03,2.68-.53,3.93l-.82,1.95c-.5,1.19-.77,2.41-.89,3.74-5.23,1-11.19-.09-14.94-4-2.14-2.23-3.5-5.07-3.94-8.14-.61-4.21.31-8.62,2.69-12.16.78-1.16,1.74-2.09,2.81-2.98.25-3.01,1.47-5.45,3.84-7.3,1.04-.82,2.18-1.44,3.42-1.91.34-.13.52-.31.67-.64.58-1.31,1.4-2.48,2.52-3.39,1.26-1.03,2.75-1.67,4.37-1.78.1,0,.19.02.23.06.05.04.08.15.05.24-.25.72-.47,1.43-.58,2.19-.03.19-.13.29-.31.34-.82.22-1.55.68-2.03,1.37-.16.23-.16.42,0,.65l3.62,5.19,7.25,10.62,3.56,5.31c.09.06.21.37.1.43l-2.57,1.29c-.1.05-.27.03-.34-.08l-6.09-8.95-4.67-6.67,1.69,8.09c.02.1.03.17,0,.22-.05.08-.16.13-.28.1l-4.73-1.08-3.6-.79c.27.41.59.62.92.9l3.77,3.29c.18.15.38.21.61.25,3.18.55,5.96,2.35,7.77,5.02l1.07,1.83c.07.12.04.28-.07.36-.93.72-1.71,1.54-2.6,2.44ZM27,40.81l7.36,1.64-1.85-7.38c-.03-.12-.17-.29-.3-.25-2.66.9-4.78,2.93-5.43,5.7-.03.17.03.25.22.29ZM24.56,61.78l2.11-4.2c.44-.87.59-1.81.43-2.76-.29-1.7-1.59-2.93-3.3-3.08-.81-.07-1.6.04-2.39.3-.43,3.88.28,6.82,2.85,9.73.04.05.1.08.13.09s.13,0,.17-.09ZM33.85,65.65c.26-.01.32-.15.42-.36l1.34-2.89c.72-1.55.54-3.39-.83-4.48s-3.3-.91-4.59.35c-.48.47-.86,1-1.17,1.6l-2.02,3.95c-.07.14.07.25.17.3,2.15,1.15,4.23,1.64,6.67,1.53Z"/>
    <path class="cls-4" d="M50.96,36.47l2.42.3c.12.02.19.15.17.28l-.48,4.3c-.33,2.97.14,6.7.72,9.66.02.09-.02.23-.11.27l-1.9.81-4.67-7.34-6.07-9.16c-1.6-2.41-2.15-5.19-1.31-7.97s2.91-4.86,5.66-5.74c2.09-.67,4.35-.49,6.25.67s3.21,3.24,3.49,5.49c.02.19-.06.43-.25.43l-2.35.06c-.13,0-.24-.11-.27-.23-.37-1.43-1.31-2.64-2.67-3.25-1.23-.55-2.61-.5-3.81.05-3.11,1.44-4.23,5.25-2.37,8.14l6.62,10.07.69-6.63c.01-.11.09-.18.23-.21Z"/>
    <path class="cls-4" d="M55.34,50.63c-.11.05-.19.04-.24.02-.06-.02-.14-.1-.16-.2-.44-1.99-.72-3.97-.77-6.02-.06-2.78.2-5.49.75-8.21.5-2.47,1.14-4.85,1.87-7.26l.55-5.29c0-.08,0-.15-.03-.19-.16-.25-1.76.11-2.49.35-.21.07-.31-.02-.41-.18-.36-.55-.83-1-1.32-1.44-.08-.07-.11-.14-.09-.23.02-.07.08-.15.17-.19,1.23-.5,2.52-.77,3.86-.83l2.37.02c.14,0,.24.11.24.26v8.6c0,.66-.1,1.21-.28,1.83l-1.02,3.62c-.84,3.34-1.22,6.75-1.05,10.19,0,.11.04.17.09.21s.15.04.24,0l1.68-.7c.11-.05.29-.01.29.12l-.02,3.72-4.23,1.81Z"/>
    <path class="cls-1" d="M94.54,55.33c.18.11.35.08.49-.02l.88-.6c.29-.2.58-.14.79.11l1.34,1.62c.14.17.24.48.08.67l-.66.75c-.13.15-.23.31-.16.53l.47,1.47c.03.09.13.26.26.26.42,0,.89.21,1.31.11.46-.11.73-.68.87-1.11.42-1.29.39-2.62.04-3.93-.41-1.54-1.28-2.85-2.42-3.94-.17-.16-.17-.41-.15-.63.09-.96.14-1.86-.02-2.81-.32-1.94-1.32-3.65-2.88-4.84l-1.28-.84c-.26-.17-.37-.4-.35-.71.12-2.81-1.46-5.32-4.04-6.42-.77-.33-1.53-.53-2.37-.65-.28-.04-.48-.2-.55-.48-.72-2.59-2.48-4.39-5.14-4.96-.86-.18-1.7-.22-2.57-.26-.31-.01-.51-.19-.64-.45-.95-1.91-3-3.25-5.12-2.37.48,1.19.71,2.35.74,3.58.58.32,1.2.18,1.2.75,0,.65-.12,1.28-.28,1.9-.07.28-.24.43-.56.43h-.91c-.29.72-.67,1.36-1.09,2.04.19.67.83,1.07.35,1.5l-1.28,1.16c-.17.16-.42.11-.6-.03l-.72-.58-.68.36c-1.49.78-3.15,1.01-4.84.67v12.52c1.1-.24,2.05-.83,2.77-1.7l1.6-4.45c-1-.83-1.1-2.26-.26-3.2.71-.8,1.82-.95,2.74-.41l5.85-4.22c-.15-.88.11-1.71.76-2.26s1.54-.73,2.34-.38c1.11.48,1.64,1.65,1.33,2.8l4.18,2.77c.81-.57,1.77-.68,2.62-.12.74.49,1.16,1.41.92,2.37-.21.85-.97,1.55-1.94,1.66l-.71,3.54c1.04.52,1.54,1.69,1.13,2.76s-1.55,1.7-2.72,1.35l-5.62,6.86c.38.83.3,1.75-.29,2.42-.56.64-1.38.93-2.22.7-.72-.19-1.35-.79-1.54-1.63l-5.04-.87c-.73,1.17-2.22,1.4-3.26.55-1.7.97-3.26,1.99-4.83,3.2l-.05-2.06c0-.12.08-.22.18-.27l3.98-2.15c-.12-.83.21-1.6.79-2.08.66-.54,1.53-.62,2.31-.25l4.68-5.24c-.39-.75-.46-1.57,0-2.33l-3.03-3.26c-.31.13-.6.19-.93.22l-1.96,5.68c-.45.62-.97,1.08-1.57,1.56-1.44.61-2.86,1.2-4.46,1.67v-18.68c0-.09.02-.11.04-.14.03-.04.12-.08.2-.02,1.2.86,2.63,1.31,4.12,1.11,2.09-.27,3.84-1.68,4.6-3.63,1.11-2.84,0-6.05-2.66-7.53-1.95-1.09-4.39-.77-6.08.64-.04.03-.21.02-.21-.03l-.02-3.81c0-.16.09-.3.26-.31,1.87-.1,3.79-.07,5.6.43,1.34.36,2.53,1.04,3.51,2.01.14.13.3.15.47.08,3-1.19,6.16-.01,7.92,2.66.08.13.29.13.43.13,2.13.06,4.15.76,5.77,2.16,1.11.96,1.9,2.17,2.46,3.52.08.19.19.29.39.33,3.88.8,6.77,3.98,7.02,7.95.01.16.09.29.21.38.7.49,1.33.99,1.91,1.64,1.81,2.03,2.67,4.7,2.46,7.41-.02.26.04.41.21.6,2.23,2.52,3.11,5.92,2.32,9.21-.25,1.04-.78,1.97-1.54,2.69s-1.74,1.07-2.81,1.04c-.19,0-.53,0-.65.14l-.68,1.51c-.08.18-.1.35.02.51l.66.89c.1.14.08.38-.04.53-.5.62-1.06,1.17-1.72,1.62-.1.07-.35.04-.43-.02l-.99-.75c-.17-.13-.31-.14-.51-.06l-1.56.63c-.16.07-.26.19-.28.37l-.06.97c-.01.2-.13.41-.34.44-.79.13-1.58.11-2.38.02-.67-.07-.37-.87-.57-1.63-.7-.18-1.3-.41-1.94-.79-.35.15-.86.22-1.07.53l-.58.86c-1.12,1.19-2.42,2.16-3.94,2.8-1.18.5-2.39.81-3.68.81h-5.27c-1.75.01-3.35.73-4.69,1.84l-2.13,1.93c-.74.67-3.77,2.92-3.77,2.36v-2.72c0-.19.24-.25.36-.35l2.11-1.63,2.59-2.05c1.6-1.08,3.4-1.81,5.35-1.82h5.02c1.63,0,3.15-.43,4.51-1.33,1.19-.79,2.16-1.82,2.86-3.05.14-.24.15-.43,0-.66-.31-.49-.55-1.02-.73-1.57-.06-.17-.16-.28-.35-.29l-.83-.03c-.22,0-.5-.07-.56-.32-.18-.71-.21-1.44-.14-2.17.03-.28.2-.46.47-.49l.98-.12c.15-.02.22-.18.26-.31l.45-1.42c.07-.21-.02-.36-.15-.51l-.68-.75c-.12-.14-.13-.4-.02-.56.45-.67.97-1.24,1.55-1.79.25-.24.55-.27.84-.07l.75.53c.18.12.36.1.54-.01.53-.35,1.1-.6,1.71-.79.16-.05.26-.16.26-.34l.02-1.14c0-.21.13-.48.37-.51.98-.15,1.95-.13,2.93,0,.22.03.4.21.41.43l.03,1.33c0,.19.14.33.31.39.54.19,1.03.43,1.53.74ZM74.66,46.64c.31-.13.53-.18.82-.23l2.39-8.7-.52-.41-5.59,4.04c.28.72.24,1.41-.13,2.07l3.04,3.22ZM83.28,47.85c.32-.82.95-1.35,1.78-1.49l.73-3.6c-.95-.52-1.41-1.57-1.09-2.61l-4.23-2.76c-.41.35-.85.5-1.35.56l-2.44,8.74c.47.31.8.69,1,1.23l5.6-.08ZM78.2,56.54l5.42-6.61c-.16-.27-.28-.48-.38-.79l-5.53.09c-.18.58-.52,1.05-1.09,1.37l1,5.77c.21.08.35.19.57.18ZM75.07,57.72c.26-.62.7-1.03,1.27-1.28l-.95-5.58-.7-.16-4.7,5.25.28.91,4.8.86ZM95.6,61.3c0-2.71-2.19-4.9-4.9-4.9s-4.9,2.19-4.9,4.9,2.19,4.9,4.9,4.9,4.9-2.19,4.9-4.9Z"/>
    <path class="cls-1" d="M69.38,29.83c0,2.09-1.7,3.79-3.79,3.79s-3.79-1.7-3.79-3.79,1.7-3.79,3.79-3.79,3.79,1.7,3.79,3.79ZM67.33,29.85c0-.95-.77-1.73-1.73-1.73s-1.73.77-1.73,1.73.77,1.73,1.73,1.73,1.73-.77,1.73-1.73Z"/>
    <path class="cls-1" d="M61.85,70.87l-.04-2.54c2.3-2.2,5.94-3.97,9.12-3.98l5.6-.02c.12,0,.23-.07.29-.17.69-1.19,2.22-1.49,3.29-.68s1.2,2.33.31,3.31-2.49.97-3.37-.07c-.12-.14-.25-.22-.45-.22h-4.89c-2.84.01-5.74,1.35-7.99,3.03l-1.86,1.35Z"/>
    <path class="cls-1" d="M94.12,61.31c0,1.88-1.52,3.4-3.4,3.4s-3.4-1.52-3.4-3.4,1.52-3.4,3.4-3.4,3.4,1.52,3.4,3.4ZM92.3,61.31c0-.87-.71-1.58-1.58-1.58s-1.58.71-1.58,1.58.71,1.58,1.58,1.58,1.58-.71,1.58-1.58Z"/>
  </g>
  <g>
    <text class="cls-2" transform="translate(121.16 78.01)"><tspan x="0" y="0">B</tspan><tspan class="cls-6" x="6.71" y="0">r</tspan><tspan x="10.6" y="0">ain and Machine </tspan><tspan class="cls-7" x="93.9" y="0">C</tspan><tspan x="100.16" y="0">ognition Lab</tspan></text>
    <text class="cls-3" transform="translate(118.25 61.85)"><tspan x="0" y="0">BMCL</tspan></text>
  </g>
</svg>